<svg width="200" height="200" viewBox="0 0 200 200" fill="none" xmlns="http://www.w3.org/2000/svg"><path d="M92.1541 38.7147C92.1541 38.7147 85.9354 70.751 50.1772 72.0167C14.419 73.2824 4.63393 124.86 40.9342 134.44C77.2345 144.02 59.3516 168.814 83.2449 173.835C110.401 179.543 110.738 139.367 129.622 138.721C171.3 137.296 192.867 118.208 177.795 102.726C151.337 75.5498 137.706 79.9305 138.632 58.2126C139.557 36.4947 100.405 12.5433 92.1541 38.7147Z" fill="#DEE9FF" fill-opacity="0.4"></path><path d="M133.16 61.7865L48.2757 79.3048C45.5713 79.863 43.8314 82.5078 44.3895 85.2122L55.3227 138.188C55.8808 140.893 58.5257 142.633 61.2301 142.074L146.114 124.556C148.818 123.998 150.558 121.353 150 118.649L139.067 65.6727C138.509 62.9683 135.864 61.2283 133.16 61.7865Z" fill="#699CFF" fill-opacity="0.5"></path><path d="M130.667 68.147L120.891 70.1646C119.269 70.4995 118.225 72.0864 118.559 73.7091L120.577 83.4852C120.912 85.1079 122.499 86.1519 124.122 85.817L133.898 83.7994C135.52 83.4645 136.564 81.8776 136.229 80.2549L134.212 70.4787C133.877 68.8561 132.29 67.8121 130.667 68.147Z" fill="white"></path><path d="M91.5393 109.413L58.5533 116.221C58.4451 116.243 58.3755 116.349 58.3978 116.457L59.3958 121.293C59.4181 121.401 59.5239 121.47 59.6321 121.448L92.6182 114.64C92.7263 114.618 92.7959 114.512 92.7736 114.404L91.7756 109.569C91.7533 109.46 91.6475 109.391 91.5393 109.413Z" fill="white"></path><path d="M107.733 116.594L60.6353 126.314C60.5271 126.336 60.4576 126.442 60.4799 126.55L61.4778 131.386C61.5002 131.494 61.606 131.564 61.7141 131.541L108.812 121.821C108.92 121.799 108.99 121.693 108.967 121.585L107.969 116.75C107.947 116.641 107.841 116.572 107.733 116.594Z" fill="white"></path><path d="M148.778 138.295C156.644 138.295 163.021 131.918 163.021 124.052C163.021 116.186 156.644 109.81 148.778 109.81C140.912 109.81 134.535 116.186 134.535 124.052C134.535 131.918 140.912 138.295 148.778 138.295Z" fill="white" stroke="white" stroke-width="15" stroke-miterlimit="10"></path><path d="M154.265 122.859H150.209C150.178 122.859 150.147 122.853 150.118 122.841C150.089 122.829 150.063 122.812 150.041 122.79C150.018 122.767 150.001 122.741 149.989 122.712C149.977 122.683 149.971 122.652 149.971 122.621V118.565C149.971 118.249 149.845 117.946 149.621 117.722C149.398 117.498 149.094 117.373 148.778 117.373C148.462 117.373 148.158 117.498 147.935 117.722C147.711 117.946 147.585 118.249 147.585 118.565V122.621C147.585 122.652 147.579 122.683 147.567 122.712C147.555 122.741 147.537 122.767 147.515 122.79C147.493 122.812 147.467 122.829 147.438 122.841C147.409 122.853 147.378 122.859 147.347 122.859H143.291C142.977 122.862 142.676 122.989 142.455 123.213C142.234 123.436 142.109 123.738 142.109 124.052C142.109 124.367 142.234 124.669 142.455 124.892C142.676 125.115 142.977 125.242 143.291 125.245H147.347C147.41 125.245 147.471 125.27 147.516 125.315C147.56 125.36 147.586 125.42 147.586 125.484V129.539C147.586 129.856 147.711 130.159 147.935 130.383C148.159 130.606 148.462 130.732 148.778 130.732C149.095 130.732 149.398 130.606 149.622 130.383C149.845 130.159 149.971 129.856 149.971 129.539V125.484C149.971 125.42 149.996 125.36 150.041 125.315C150.086 125.27 150.146 125.245 150.21 125.245H154.265C154.58 125.242 154.88 125.115 155.102 124.892C155.323 124.669 155.447 124.367 155.447 124.052C155.447 123.738 155.323 123.436 155.102 123.213C154.88 122.989 154.58 122.862 154.265 122.859Z" fill="#418DF9" fill-opacity="0.5"></path></svg>